<svg width="50" height="50" viewBox="0 0 50 50" fill="none" xmlns="http://www.w3.org/2000/svg">
<rect x="1.5" y="1.5" width="47" height="47" rx="8.5" fill="#080C11" stroke="#F8FAFC" stroke-width="3"/>
<path fill-rule="evenodd" clip-rule="evenodd" d="M28.5714 30.5714C28.5714 32.3297 27.146 33.7551 25.3878 33.7551C23.6295 33.7551 22.2041 32.3297 22.2041 30.5714C22.2041 28.8131 23.6295 27.3878 25.3878 27.3878C27.1461 27.3878 28.5714 28.8131 28.5714 30.5714ZM25.3878 38C29.4904 38 32.8163 34.6741 32.8163 30.5714C32.8163 29.2184 32.4546 27.9498 31.8225 26.8572L33.3469 26.8572C37.4496 26.8572 40.7755 23.5313 40.7755 19.4286C40.7755 15.3259 37.4496 12 33.3469 12L17.4286 12C13.3259 12 10 15.3259 10 19.4286C10 23.5313 13.3259 26.8571 17.4286 26.8571L18.953 26.8571C18.3209 27.9498 17.9592 29.2184 17.9592 30.5714C17.9592 34.6741 21.2851 38 25.3878 38ZM17.4286 22.6123C15.6703 22.6123 14.2449 21.1869 14.2449 19.4286C14.2449 17.6703 15.6703 16.2449 17.4286 16.2449L33.3469 16.2449C35.1052 16.2449 36.5306 17.6703 36.5306 19.4286C36.5306 21.1869 35.1052 22.6123 33.3469 22.6123L17.4286 22.6123Z" fill="#11BACE"/>
</svg>
