<svg width="50" height="50" viewBox="0 0 50 50" fill="none" xmlns="http://www.w3.org/2000/svg">
<rect x="1.5" y="1.5" width="47" height="47" rx="8.5" fill="#080C11" stroke="#F8FAFC" stroke-width="3"/>
<path d="M29 15H25V26H29V25.4003C29.7501 25.7837 30.5998 26 31.5 26C34.5376 26 37 23.5376 37 20.5C37 17.4624 34.5376 15 31.5 15C30.5998 15 29.7501 15.2163 29 15.5997V15Z" fill="#F8FAFC"/>
<path fill-rule="evenodd" clip-rule="evenodd" d="M32 31C32 34.866 28.866 38 25 38C21.134 38 18 34.866 18 31C18 29.7179 18.3447 28.5163 18.9465 27.4828L17.2414 27.4828C13.2421 27.4828 10 24.2407 10 20.2414C10 16.2421 13.2421 13 17.2414 13L32.7586 13C36.7579 13 40 16.2421 40 20.2414C40 24.2407 36.7579 27.4828 32.7586 27.4828L31.0535 27.4828C31.6553 28.5163 32 29.7179 32 31ZM17.2414 23.3448C15.5274 23.3448 14.1379 21.9554 14.1379 20.2414C14.1379 18.5274 15.5274 17.1379 17.2414 17.1379L32.7586 17.1379C34.4726 17.1379 35.8621 18.5274 35.8621 20.2414C35.8621 21.9554 34.4726 23.3448 32.7586 23.3448L17.2414 23.3448Z" fill="#11BACE"/>
</svg>
